<svg width="175" height="18" viewBox="0 0 175 18" fill="none" xmlns="http://www.w3.org/2000/svg">
<g clip-path="url(#clip0_854_81330)">
<path fill-rule="evenodd" clip-rule="evenodd" d="M28.0744 1.62598H16.1731L14.9375 6.00268H15.4713C17.2802 3.12404 17.9227 2.28199 19.5735 2.28199H20.8288L18.4169 13.6497C18.1797 14.7659 17.8436 14.8932 16.2522 15.0694L16.1336 15.6667H22.2226L22.361 15.0694C20.9474 14.9323 20.5125 14.8246 20.7695 13.6497L23.1616 2.28199H24.6345C26.2852 2.28199 25.9392 3.12404 26.4335 6.00268H26.9475L28.0744 1.62598Z" fill="#FEFEFE"/>
<path fill-rule="evenodd" clip-rule="evenodd" d="M35.1997 14.3839C35.0218 14.3839 34.9229 14.286 34.9229 14.0803C34.9229 13.9237 35.002 13.581 35.1009 13.2187L36.6528 7.37332C36.7121 7.06979 36.7714 6.71731 36.7714 6.45294C36.7714 5.53256 36.4155 4.97446 35.4172 4.97446C33.5094 4.97446 31.2755 7.63769 30.0992 9.91905L32.5901 0.000488281H32.2936L28.8142 0.803373L28.7351 1.12649L30.0102 1.74334L26.5703 15.6665H28.7351L29.4468 12.8075C30.3265 9.26304 33.0646 6.42357 34.2014 6.42357C34.4584 6.42357 34.5572 6.56065 34.5572 6.84459C34.5572 7.00125 34.5177 7.24604 34.4584 7.48103L33.0251 12.6802C32.8274 13.4243 32.7483 13.9237 32.7483 14.3839C32.7483 15.2651 33.2425 15.8624 34.1223 15.8624C35.2195 15.8624 36.03 15.0007 37.2854 13.16L36.9493 12.8956C36.0893 13.9531 35.5753 14.3741 35.1997 14.3741V14.3839Z" fill="#FEFEFE"/>
<path fill-rule="evenodd" clip-rule="evenodd" d="M45.9746 7.01114C45.9746 5.91452 45.1937 4.99414 43.4836 4.99414C40.2612 4.99414 37.5527 8.67566 37.5527 12.1711C37.5527 14.3938 38.7883 15.8723 40.8345 15.8723C42.5841 15.8723 43.9383 14.8735 45.2134 12.9936L44.8378 12.6901C43.8592 13.9336 42.93 14.5896 41.7933 14.5896C40.4984 14.5896 39.7274 13.5713 39.7274 11.7697C39.7274 11.5249 39.7472 11.2704 39.7669 11.0256C42.9498 10.3891 45.9746 9.5275 45.9746 7.00135V7.01114ZM43.1475 5.65016C43.8394 5.65016 44.1261 6.16909 44.1261 6.81532C44.1261 8.77357 42.6928 9.87999 39.8262 10.5556C40.1821 8.13714 41.5561 5.65016 43.1475 5.65016Z" fill="#FEFEFE"/>
<path fill-rule="evenodd" clip-rule="evenodd" d="M53.8528 3.64298C54.09 2.52677 54.347 2.39949 55.8199 2.22324L55.9582 1.62598H50.2448L50.1262 2.22324C51.4211 2.37991 51.7572 2.46803 51.5002 3.64298L49.375 13.6497C49.1575 14.7659 48.8807 14.8932 47.4079 15.0694L47.2695 15.6667H52.9829L53.1213 15.0694C51.8066 14.9127 51.4706 14.8246 51.7276 13.6497L53.8528 3.64298Z" fill="#FEFEFE"/>
<path fill-rule="evenodd" clip-rule="evenodd" d="M62.6607 14.3838C62.4827 14.3838 62.3839 14.2859 62.3839 14.0803C62.3839 13.9236 62.463 13.5809 62.5618 13.2186L64.1137 7.37323C64.173 7.0697 64.2323 6.71721 64.2323 6.45285C64.2323 5.53247 63.8765 4.97437 62.8781 4.97437C60.9704 4.97437 58.7364 7.65718 57.5403 9.91896L58.8748 4.97437H58.5782L55.1186 5.836L55.0593 6.13953L56.2356 6.79554L54.0312 15.6567H56.196L56.9077 12.7976C57.7875 9.25315 60.5255 6.41368 61.6623 6.41368C61.9193 6.41368 62.0181 6.55076 62.0181 6.83471C62.0181 6.99137 61.9588 7.23615 61.8995 7.47114L60.486 12.6703C60.2883 13.4144 60.2092 13.9138 60.2092 14.374C60.2092 15.2552 60.7035 15.8525 61.5832 15.8525C62.6804 15.8525 63.491 14.9908 64.7463 13.1501L64.4103 12.8857C63.5503 13.9432 63.0363 14.3642 62.6607 14.3642V14.3838Z" fill="#FEFEFE"/>
<path fill-rule="evenodd" clip-rule="evenodd" d="M73.5738 14.3839C73.3958 14.3839 73.297 14.286 73.297 14.0804C73.297 13.9237 73.3761 13.581 73.4749 13.2187L76.7171 -0.00927734H76.4404L72.9411 0.793608L72.8818 1.11672L74.157 1.73357L73.1784 5.6305C72.6644 5.15073 72.1602 4.97448 71.3299 4.97448C68.2261 4.97448 65.0234 8.75392 65.0234 12.876C65.0234 14.7168 65.8241 15.8526 67.1882 15.8526C68.8192 15.8526 70.7863 13.4929 71.9626 10.9276C71.6067 11.985 71.1619 13.7866 71.1619 14.3643C71.1619 15.2651 71.6166 15.8428 72.4963 15.8428C73.5935 15.8428 74.4041 14.9812 75.6595 13.1404L75.3234 12.876C74.4634 13.9335 73.9494 14.3545 73.5738 14.3545V14.3839ZM68.1174 14.3252C67.465 14.3252 67.2179 13.6202 67.2179 12.6215C67.2179 9.49806 69.1849 5.60113 71.5177 5.60113C72.1701 5.60113 72.7336 5.98299 72.9708 6.58025C71.8143 11.2997 69.5704 14.3252 68.1174 14.3252Z" fill="#FEFEFE"/>
<path fill-rule="evenodd" clip-rule="evenodd" d="M90.8129 12.9054C89.9332 13.9629 89.4192 14.3839 89.0633 14.3839C88.8854 14.3839 88.7866 14.286 88.7866 14.0804C88.7866 13.9237 88.8656 13.581 88.9447 13.2187L90.4175 7.17752L91.1292 4.8374H90.6548L89.0238 5.81653C88.49 5.27801 87.8673 4.97448 86.9381 4.97448C83.8145 4.97448 80.7305 8.75391 80.7305 12.876C80.7305 14.7168 81.5114 15.8526 82.8755 15.8526C84.5064 15.8526 86.177 13.7083 87.373 11.1724C86.9974 12.2102 86.6416 13.7964 86.6416 14.3741C86.6416 15.2749 87.116 15.8526 87.9958 15.8526C89.0732 15.8526 89.9035 14.991 91.1589 13.1502L90.8228 12.8858L90.8129 12.9054ZM83.8046 14.3252C83.1918 14.3252 82.9051 13.7083 82.9051 12.7488C82.9051 9.39035 84.8722 5.61091 87.1061 5.61091C87.7585 5.61091 88.2824 5.99277 88.5197 6.59004C87.3038 11.3486 85.2577 14.3349 83.8046 14.3349V14.3252Z" fill="#FEFEFE"/>
<path fill-rule="evenodd" clip-rule="evenodd" d="M99.7876 14.3838C99.6097 14.3838 99.5108 14.2859 99.5108 14.0803C99.5108 13.9236 99.5899 13.5809 99.6888 13.2186L101.241 7.37323C101.3 7.0697 101.359 6.71721 101.359 6.45285C101.359 5.53247 101.003 4.97437 100.005 4.97437C98.0973 4.97437 95.8634 7.65718 94.6673 9.91896L96.0017 4.97437H95.7052L92.2455 5.836L92.1862 6.13953L93.3625 6.79554L91.1582 15.6567H93.323L94.0347 12.7976C94.9144 9.25315 97.6525 6.41368 98.7893 6.41368C99.0463 6.41368 99.1451 6.55076 99.1451 6.83471C99.1451 6.99137 99.0858 7.23615 99.0265 7.47114L97.613 12.6703C97.4153 13.4144 97.3362 13.9138 97.3362 14.374C97.3362 15.2552 97.8304 15.8525 98.7102 15.8525C99.8074 15.8525 100.618 14.9908 101.873 13.1501L101.537 12.8857C100.677 13.9432 100.163 14.3642 99.7876 14.3642V14.3838Z" fill="#FEFEFE"/>
<path fill-rule="evenodd" clip-rule="evenodd" d="M79.8403 3.52544C80.641 3.52544 81.2736 2.86943 81.2736 2.08612C81.2736 1.38115 80.7201 0.803467 79.9392 0.803467C79.1187 0.803467 78.5059 1.4399 78.5059 2.24278C78.5059 2.94776 79.0594 3.52544 79.8403 3.52544Z" fill="#FEFEFE"/>
<path fill-rule="evenodd" clip-rule="evenodd" d="M78.3671 14.3838C78.1892 14.3838 78.0903 14.2859 78.0903 14.0803C78.0903 13.9236 78.1694 13.5809 78.2682 13.2186L80.3144 4.97437H80.0178L76.5779 5.836L76.4989 6.13953L77.6751 6.79554L76.2023 12.6801C76.0046 13.4438 75.9453 13.9236 75.9453 14.3838C75.9453 15.265 76.4198 15.8623 77.2995 15.8623C78.377 15.8623 79.2073 15.0006 80.4627 13.1599L80.1266 12.8955C79.2468 13.953 78.7526 14.374 78.377 14.374L78.3671 14.3838Z" fill="#FEFEFE"/>
<path fill-rule="evenodd" clip-rule="evenodd" d="M12.6933 6.77603L7.10837 1.79227C6.3769 1.15583 6.86125 0.108167 6.86125 0.108167L6.74263 0.0102539L5.57623 1.45936C4.92383 2.26225 5.03257 3.46658 5.82335 4.14217L11.4082 9.12593C12.1397 9.76237 11.6554 10.81 11.6554 10.81L11.774 10.9079L12.9404 9.45884C13.5928 8.65595 13.484 7.45163 12.6933 6.77603Z" fill="#FF1204"/>
<path fill-rule="evenodd" clip-rule="evenodd" d="M10.123 9.96792L4.53806 4.98416C3.80658 4.34773 4.29094 3.30006 4.29094 3.30006L4.17232 3.20215L3.00592 4.65126C2.35352 5.45414 2.46225 6.65847 3.25304 7.33407L8.83793 12.3178C9.56941 12.9543 9.08505 14.0019 9.08505 14.0019L9.20367 14.0998L10.3701 12.6507C11.0225 11.8478 10.9137 10.6435 10.123 9.96792Z" fill="#FF1204"/>
<path fill-rule="evenodd" clip-rule="evenodd" d="M7.54288 13.1601L1.95798 8.1763C1.22651 7.53987 1.71086 6.4922 1.71086 6.4922L1.59224 6.39429L0.425839 7.8434C-0.226556 8.64628 -0.117823 9.85061 0.672959 10.5262L6.25785 15.51C6.98933 16.1464 6.50497 17.1941 6.50497 17.1941L6.62359 17.292L7.78999 15.8429C8.44239 15.04 8.33366 13.8357 7.54288 13.1601Z" fill="#FF1204"/>
<path fill-rule="evenodd" clip-rule="evenodd" d="M104.414 15.6861H112.905V13.1208H107.716V9.61554H111.63V7.22647H107.716V4.15201H112.628V1.58669H104.414V15.6763V15.6861ZM113.083 15.6861H116.444L118.727 10.5261L121.03 15.6861H124.747L121.149 8.33289L124.332 1.59649H120.991L119.024 6.16901L117.017 1.59649H113.32L116.681 8.4308L113.083 15.6861ZM125.103 15.6861H128.404V10.4282H129.739C132.843 10.4282 134.573 9.1064 134.573 6.36484V5.77736C134.573 3.01622 132.981 1.59649 129.64 1.59649H125.103V15.6861ZM128.404 8.13706V4.07368H129.521C130.757 4.07368 131.37 4.52408 131.37 5.80674V6.33547C131.37 7.55938 130.757 8.12727 129.521 8.12727H128.404V8.13706ZM135.205 15.6861H138.507V10.1443H139.505L142.016 15.6861H145.495L142.629 9.5568C143.943 9.06723 144.872 8.0979 144.872 6.14943V5.64029C144.872 2.91831 143.143 1.59649 139.861 1.59649H135.205V15.6861ZM138.507 7.96082V4.10305H139.742C140.998 4.10305 141.65 4.55345 141.65 5.7382V6.20818C141.65 7.45167 141.017 7.96082 139.742 7.96082H138.507ZM145.96 15.6861H154.451V13.1208H149.261V9.61554H153.176V7.22647H149.261V4.15201H154.174V1.58669H145.96V15.6763V15.6861ZM159.897 15.9015C162.962 15.9015 164.751 14.2077 164.751 11.5836C164.751 8.66579 162.981 7.76499 160.352 7.03065C158.681 6.54108 158.227 6.13964 158.227 5.18009C158.227 4.32825 158.741 3.81911 159.7 3.81911C160.678 3.81911 161.271 4.26951 161.35 5.49342H164.454C164.316 2.69311 162.606 1.39087 159.719 1.39087C156.833 1.39087 155.064 3.00643 155.064 5.41509C155.064 7.99998 156.398 9.05744 159.245 9.90928C160.876 10.3793 161.528 10.7415 161.528 11.8969C161.528 12.925 160.935 13.4733 159.897 13.4733C158.504 13.4733 158.029 12.8075 157.97 11.4465H154.787C154.866 14.4231 156.635 15.9015 159.897 15.9015ZM170.158 15.9015C173.222 15.9015 175.011 14.2077 175.011 11.5836C175.011 8.66579 173.242 7.76499 170.612 7.03065C168.942 6.54108 168.487 6.13964 168.487 5.18009C168.487 4.32825 169.001 3.81911 169.96 3.81911C170.939 3.81911 171.532 4.26951 171.611 5.49342H174.715C174.576 2.69311 172.866 1.39087 169.98 1.39087C167.093 1.39087 165.324 3.00643 165.324 5.41509C165.324 7.99998 166.658 9.05744 169.505 9.90928C171.136 10.3793 171.789 10.7415 171.789 11.8969C171.789 12.925 171.196 13.4733 170.158 13.4733C168.764 13.4733 168.289 12.8075 168.23 11.4465H165.047C165.126 14.4231 166.896 15.9015 170.158 15.9015Z" fill="#FEFEFE"/>
</g>
<defs>
<clipPath id="clip0_854_81330">
<rect width="175" height="17.2925" fill="white"/>
</clipPath>
</defs>
</svg>
