<svg width="31" height="30" viewBox="0 0 31 30" fill="none" xmlns="http://www.w3.org/2000/svg">
<path fill-rule="evenodd" clip-rule="evenodd" d="M0.833985 2.78392C0.833985 2.13396 1.09218 1.51063 1.55177 1.05104C2.01136 0.59145 2.63469 0.333255 3.28465 0.333255H27.714C28.0361 0.332729 28.3551 0.395739 28.6528 0.518677C28.9506 0.641616 29.2211 0.822068 29.449 1.0497C29.6769 1.27734 29.8576 1.54769 29.9809 1.84527C30.1041 2.14285 30.1675 2.46182 30.1673 2.78392V27.2133C30.1677 27.5354 30.1045 27.8545 29.9814 28.1522C29.8583 28.4499 29.6777 28.7205 29.45 28.9483C29.2223 29.1762 28.9518 29.3569 28.6542 29.4802C28.3565 29.6034 28.0375 29.6668 27.7153 29.6666H3.28465C2.96271 29.6666 2.64393 29.6032 2.34651 29.4799C2.0491 29.3567 1.77888 29.176 1.5513 28.9483C1.32371 28.7206 1.14323 28.4503 1.02015 28.1528C0.897069 27.8553 0.83381 27.5365 0.833985 27.2146V2.78392ZM12.4447 11.5173H16.4167V13.5119C16.99 12.3653 18.4567 11.3333 20.6607 11.3333C24.886 11.3333 25.8873 13.6173 25.8873 17.8079V25.5706H21.6113V18.7626C21.6113 16.3759 21.038 15.0293 19.582 15.0293C17.562 15.0293 16.722 16.4813 16.722 18.7626V25.5706H12.4447V11.5173ZM5.11132 25.3879H9.38865V11.3333H5.11132V25.3866V25.3879ZM10.0007 6.74926C10.0087 7.11549 9.94355 7.47964 9.80897 7.82034C9.67439 8.16104 9.47312 8.47144 9.21696 8.7333C8.9608 8.99516 8.65492 9.20322 8.31726 9.34526C7.9796 9.48731 7.61697 9.56048 7.25065 9.56048C6.88433 9.56048 6.5217 9.48731 6.18405 9.34526C5.84639 9.20322 5.5405 8.99516 5.28434 8.7333C5.02818 8.47144 4.82691 8.16104 4.69233 7.82034C4.55776 7.47964 4.49259 7.11549 4.50065 6.74926C4.51648 6.03039 4.81316 5.34631 5.32717 4.8435C5.84117 4.3407 6.53162 4.05915 7.25065 4.05915C7.96969 4.05915 8.66014 4.3407 9.17414 4.8435C9.68814 5.34631 9.98482 6.03039 10.0007 6.74926Z" fill="#DB2228"/>
</svg>
