<svg width="15" height="16" viewBox="0 0 15 16" fill="none" xmlns="http://www.w3.org/2000/svg">
<path fill-rule="evenodd" clip-rule="evenodd" d="M7.49935 1.99996C4.18564 1.99996 1.49935 4.68625 1.49935 7.99996C1.49935 11.3137 4.18564 14 7.49935 14C10.8131 14 13.4993 11.3137 13.4993 7.99996C13.4993 4.68625 10.8131 1.99996 7.49935 1.99996ZM0.166016 7.99996C0.166016 3.94987 3.44926 0.666626 7.49935 0.666626C11.5494 0.666626 14.8327 3.94987 14.8327 7.99996C14.8327 12.05 11.5494 15.3333 7.49935 15.3333C3.44926 15.3333 0.166016 12.05 0.166016 7.99996Z" fill="white"/>
<path fill-rule="evenodd" clip-rule="evenodd" d="M7.67143 5.3495C7.36108 5.29627 7.04191 5.35459 6.77044 5.51414C6.49897 5.67368 6.29273 5.92415 6.18824 6.22119C6.06606 6.56851 5.68545 6.75103 5.33812 6.62885C4.99079 6.50667 4.80828 6.12606 4.93046 5.77873C5.13944 5.18466 5.55193 4.68371 6.09486 4.36463C6.6378 4.04554 7.27614 3.9289 7.89684 4.03536C8.51753 4.14183 9.08052 4.46453 9.48608 4.94631C9.89157 5.42799 10.1135 6.03761 10.1127 6.66723C10.1125 7.38068 9.73726 7.92598 9.34942 8.29757C8.96144 8.66929 8.5014 8.92723 8.1766 9.08282C8.15066 9.09525 8.13181 9.11302 8.12136 9.12836C8.1165 9.13551 8.11433 9.1408 8.11344 9.14357C8.11267 9.14599 8.11268 9.14696 8.11268 9.14712V9.3333C8.11268 9.70149 7.81421 9.99997 7.44602 9.99997C7.07783 9.99997 6.77935 9.70149 6.77935 9.3333V9.14713C6.77935 8.56726 7.14505 8.09855 7.60056 7.88034C7.86485 7.75373 8.18353 7.56807 8.427 7.33481C8.67049 7.10152 8.77935 6.88065 8.77935 6.66663L8.77935 6.66563C8.77982 6.35075 8.66883 6.04587 8.46605 5.80498C8.26327 5.56409 7.98177 5.40274 7.67143 5.3495Z" fill="white"/>
<path d="M8.16602 11.3333C8.16602 11.7015 7.86754 12 7.49935 12C7.13116 12 6.83268 11.7015 6.83268 11.3333C6.83268 10.9651 7.13116 10.6666 7.49935 10.6666C7.86754 10.6666 8.16602 10.9651 8.16602 11.3333Z" fill="white"/>
</svg>
